<svg width="378" height="245" viewBox="0 0 378 245" fill="none" xmlns="http://www.w3.org/2000/svg">
<g opacity="0.5" clip-path="url(#clip0_7088_5919)">
<path d="M4.12334 81.1751L51.1861 -0.281635L98.2271 81.1868L4.12334 81.1751Z" fill="url(#paint0_linear_7088_5919)"/>
<path d="M145.268 162.656L98.2266 81.1875L192.273 81.1839L145.268 162.656Z" fill="#F5F8FB"/>
<path d="M98.2285 81.1871L51.1875 -0.28125L145.234 -0.284838L98.2285 81.1871Z" fill="#F8FAFC"/>
<path d="M98.2263 81.1859L145.232 -0.286089L192.273 81.1823L98.2263 81.1859Z" fill="url(#paint1_linear_7088_5919)"/>
<path d="M98.2167 244.119L51.1758 162.65L145.28 162.662L98.2167 244.119Z" fill="url(#paint2_linear_7088_5919)"/>
<path d="M192.275 81.1832L145.234 -0.285156L239.338 -0.273478L192.275 81.1832Z" fill="url(#paint3_linear_7088_5919)"/>
<path d="M192.276 81.1829L239.338 -0.273823L286.379 81.1946L192.276 81.1829Z" fill="url(#paint4_linear_7088_5919)"/>
<path d="M51.1741 162.652L98.2368 81.1949L145.278 162.663L51.1741 162.652Z" fill="url(#paint5_linear_7088_5919)"/>
<path opacity="0.5" d="M333.418 162.662L380.423 81.1905L427.464 162.659L333.418 162.662Z" fill="#F1F8FF"/>
<path opacity="0.1" d="M380.445 244.127L427.487 162.634L474.528 244.103L380.445 244.127Z" fill="#F1F8FF"/>
<path d="M145.233 -0.285858L192.295 -81.7426L239.336 -0.274176L145.233 -0.285858Z" fill="#F8FAFC"/>
<path d="M286.377 81.195L239.336 -0.273438L333.382 -0.277025L286.377 81.195Z" fill="#F1F8FF"/>
<path opacity="0.7" d="M286.379 81.1937L333.384 -0.278276L380.425 81.19L286.379 81.1937Z" fill="url(#paint6_linear_7088_5919)"/>
<path d="M239.336 -0.275045L286.341 -81.747L333.382 -0.27863L239.336 -0.275045Z" fill="url(#paint7_linear_7088_5919)"/>
<path d="M380.424 81.191L333.383 -0.277344L427.486 -0.265613L380.424 81.191Z" fill="#F8FAFC"/>
<path d="M333.385 -0.278046L380.448 -81.7347L427.489 -0.266295L333.385 -0.278046Z" fill="url(#paint8_linear_7088_5919)"/>
</g>
<defs>
<linearGradient id="paint0_linear_7088_5919" x1="82.7296" y1="35.722" x2="28.3844" y2="39.8655" gradientUnits="userSpaceOnUse">
<stop stop-color="#E5EEF7"/>
<stop offset="1" stop-color="#F1F6FB" stop-opacity="0"/>
</linearGradient>
<linearGradient id="paint1_linear_7088_5919" x1="109.964" y1="20.0738" x2="156.997" y2="101.547" gradientUnits="userSpaceOnUse">
<stop stop-color="#E5EEF7"/>
<stop offset="1" stop-color="#F1F6FB" stop-opacity="0"/>
</linearGradient>
<linearGradient id="paint2_linear_7088_5919" x1="81.2335" y1="211.112" x2="109.999" y2="81.1395" gradientUnits="userSpaceOnUse">
<stop stop-color="#FBE8CA"/>
<stop offset="0.255208" stop-color="#FAE5C2" stop-opacity="0.79"/>
<stop offset="1" stop-color="#F8FAFC" stop-opacity="0.03"/>
</linearGradient>
<linearGradient id="paint3_linear_7088_5919" x1="180.521" y1="-20.6555" x2="227.554" y2="60.8175" gradientUnits="userSpaceOnUse">
<stop stop-color="#E5EEF7"/>
<stop offset="1" stop-color="#F1F6FB" stop-opacity="0"/>
</linearGradient>
<linearGradient id="paint4_linear_7088_5919" x1="157.872" y1="5.22115" x2="263.908" y2="104.056" gradientUnits="userSpaceOnUse">
<stop stop-color="#FBD59A"/>
<stop offset="0.255208" stop-color="#FBD59A" stop-opacity="0.79"/>
<stop offset="1" stop-color="#F8FAFC" stop-opacity="0.03"/>
</linearGradient>
<linearGradient id="paint5_linear_7088_5919" x1="86.4709" y1="235.626" x2="86.5154" y2="40.4166" gradientUnits="userSpaceOnUse">
<stop stop-color="#FBD59A"/>
<stop offset="0.255208" stop-color="#FEEEC5"/>
<stop offset="1" stop-color="#F8FAFC" stop-opacity="0.03"/>
</linearGradient>
<linearGradient id="paint6_linear_7088_5919" x1="298.116" y1="20.0816" x2="345.149" y2="101.554" gradientUnits="userSpaceOnUse">
<stop offset="0.0749381" stop-color="white"/>
<stop offset="1" stop-color="white" stop-opacity="0"/>
</linearGradient>
<linearGradient id="paint7_linear_7088_5919" x1="251.073" y1="-61.3872" x2="298.106" y2="20.0858" gradientUnits="userSpaceOnUse">
<stop stop-color="#E5EEF7"/>
<stop offset="1" stop-color="#F1F6FB" stop-opacity="0"/>
</linearGradient>
<linearGradient id="paint8_linear_7088_5919" x1="337.992" y1="-20.6303" x2="417.476" y2="-52.6982" gradientUnits="userSpaceOnUse">
<stop stop-color="#E5EEF7"/>
<stop offset="1" stop-color="#F1F6FB" stop-opacity="0"/>
</linearGradient>
<clipPath id="clip0_7088_5919">
<rect width="377.063" height="244.747" fill="white"/>
</clipPath>
</defs>
</svg>
