<svg width="16" height="13" viewBox="0 0 16 13" fill="none" xmlns="http://www.w3.org/2000/svg">
<path d="M7.85286 2.60215C9.69286 2.60215 11.1862 4.09548 11.1862 5.93548C11.1862 6.27548 11.1195 6.60215 11.0262 6.90881L13.0662 8.94881C13.9929 8.12881 14.7262 7.10215 15.1862 5.92881C14.0329 3.00881 11.1862 0.935481 7.85286 0.935481C7.0062 0.935481 6.19286 1.06881 5.4262 1.31548L6.87286 2.76215C7.1862 2.66881 7.51286 2.60215 7.85286 2.60215ZM1.65953 0.375481C1.39953 0.635481 1.39953 1.05548 1.65953 1.31548L2.97286 2.62881C1.89286 3.48881 1.03286 4.62215 0.519531 5.93548C1.67286 8.86215 4.51953 10.9355 7.85286 10.9355C8.8662 10.9355 9.83286 10.7355 10.7262 10.3888L12.5395 12.2021C12.7995 12.4621 13.2195 12.4621 13.4795 12.2021C13.7395 11.9421 13.7395 11.5221 13.4795 11.2621L2.6062 0.375481C2.3462 0.115481 1.91953 0.115481 1.65953 0.375481ZM7.85286 9.26881C6.01286 9.26881 4.51953 7.77548 4.51953 5.93548C4.51953 5.42215 4.63953 4.93548 4.8462 4.50881L5.89286 5.55548C5.87286 5.67548 5.85286 5.80215 5.85286 5.93548C5.85286 7.04215 6.7462 7.93548 7.85286 7.93548C7.9862 7.93548 8.1062 7.91548 8.23286 7.88881L9.27953 8.93548C8.8462 9.14881 8.3662 9.26881 7.85286 9.26881ZM9.83286 5.71548C9.73286 4.78215 8.99953 4.05548 8.07286 3.95548L9.83286 5.71548Z" fill="#697586"/>
</svg>
