<svg width="281" height="81" viewBox="0 0 281 81" fill="none" xmlns="http://www.w3.org/2000/svg">
<g filter="url(#filter0_d_7088_6050)">
<circle cx="240" cy="38.8262" r="32" fill="#0C438D"/>
</g>
<path d="M255.378 26.9586L255.051 26.3633L254.727 26.9586L254.133 27.2859L254.727 27.6107L255.051 28.206L255.378 27.6107L255.969 27.2859L255.378 26.9586Z" fill="#E2F2FC"/>
<path d="M258.853 22.5177L258.097 21.1387L257.347 22.5177L255.972 23.2758L257.347 24.028L258.097 25.407L258.853 24.028L260.223 23.2758L258.853 22.5177Z" fill="#88B8F1"/>
<path d="M221.57 54.0176L222.18 52.8965L222.793 54.0176L223.916 54.631L222.793 55.2421L222.18 56.3633L221.57 55.2421L220.449 54.631L221.57 54.0176Z" fill="#E2F2FC"/>
<path d="M239.102 48.8667C242.102 48.7772 245.672 48.5243 246.978 48.3046C249.762 47.8598 252.307 45.4002 252.81 42.5753C253.058 41.1115 253.293 39.1903 253.358 36.666C253.685 36.6984 253.956 36.7313 254.145 36.7629C255.744 37.0185 257.205 38.4311 257.494 40.0527C257.659 41.0339 257.816 42.3726 257.818 44.2022C257.816 46.0318 257.66 47.3705 257.494 48.3517C257.21 49.9436 255.797 51.3335 254.232 51.6254L251.952 55.309C251.562 55.9381 250.659 55.9381 250.269 55.309L248.209 51.9829C246.407 51.9989 243.284 51.8041 242.318 51.6421C240.891 51.414 239.574 50.2642 239.102 48.8667Z" fill="#E2F2FC"/>
<path d="M250.687 28.7658C250.25 26.3128 248.041 24.1771 245.623 23.7909C244.156 23.5443 239.4 23.249 236.681 23.2751C233.962 23.249 229.205 23.5443 227.738 23.7909C225.321 24.1771 223.111 26.3128 222.674 28.7658C222.424 30.2493 222.187 32.274 222.184 35.0408C222.187 37.8068 222.424 39.8314 222.674 41.3158C223.103 43.7233 225.24 45.8245 227.606 46.2663L231.055 51.8361C231.644 52.7879 233.009 52.7879 233.599 51.8361L236.714 46.8057C239.439 46.8293 244.163 46.5356 245.623 46.2899C248.041 45.9036 250.25 43.7679 250.687 41.315C250.939 39.8314 251.175 37.8068 251.178 35.04C251.175 32.274 250.938 30.2493 250.687 28.7649V28.7658Z" fill="#4BBAEA"/>
<path d="M249.083 25.6918C248.149 24.7039 246.916 23.9971 245.623 23.7909C244.156 23.5443 239.4 23.249 236.681 23.2751C233.962 23.249 229.205 23.5443 227.738 23.7909C225.321 24.1771 223.111 26.3128 222.674 28.7658C222.424 30.2493 222.187 32.274 222.184 35.0408C222.187 37.4954 222.373 39.3652 222.591 40.7924C224.163 41.1812 225.801 41.3999 227.484 41.4286C237.541 41.6002 246.151 34.9146 249.083 25.6927V25.6918Z" fill="url(#paint0_linear_7088_6050)"/>
<path d="M238.186 38.1592C238.19 38.9205 237.603 39.5352 236.875 39.5271C234.553 39.5044 232.232 39.4518 229.91 39.3692C229.181 39.3424 228.547 38.7172 228.504 37.9761C228.461 37.2351 229.036 36.6503 229.776 36.6673C232.13 36.7232 234.483 36.7589 236.836 36.7742C237.577 36.7791 238.182 37.3979 238.186 38.1592H238.186ZM243.635 33.5468C239.004 33.5727 234.373 33.5541 229.742 33.4917C228.997 33.4812 228.375 32.8697 228.363 32.1286C228.352 31.3876 228.957 30.7883 229.705 30.7891C234.353 30.7996 239.002 30.8028 243.65 30.7988C244.398 30.7988 245.004 31.4111 244.999 32.1675C244.993 32.924 244.38 33.5419 243.635 33.5468H243.635Z" fill="#E2F2FC"/>
<g filter="url(#filter1_d_7088_6050)">
<path d="M184.107 21.5254H14.4766C11.1629 21.5254 8.47656 24.2117 8.47656 27.5254V51.5254C8.47656 54.8391 11.1629 57.5254 14.4766 57.5254H163.911H176.263H184.107C187.421 57.5254 190.107 54.8391 190.107 51.5254V45.0254L196.107 39.5254L190.107 34.0254V27.5254C190.107 24.2117 187.421 21.5254 184.107 21.5254Z" fill="#46B9EA"/>
<path d="M196.445 39.894L196.847 39.5254L196.445 39.1568L190.607 33.8055V27.5254C190.607 23.9355 187.697 21.0254 184.107 21.0254H14.4766C10.8867 21.0254 7.97656 23.9355 7.97656 27.5254V51.5254C7.97656 55.1152 10.8867 58.0254 14.4766 58.0254H163.911H176.263H184.107C187.697 58.0254 190.607 55.1152 190.607 51.5254V45.2453L196.445 39.894Z" stroke="white"/>
</g>
<path d="M27.7081 35.8747C27.5961 36.3227 27.2788 36.8407 26.7561 37.4287C27.1388 37.8393 27.3301 38.3387 27.3301 38.9267V44.7227H26.1541V41.5307C26.1541 41.1107 25.9534 40.7793 25.5521 40.5367C25.1508 40.294 24.7028 40.1727 24.2081 40.1727C23.7134 40.1727 23.2981 40.294 22.9621 40.5367C22.6261 40.77 22.4581 41.0967 22.4581 41.5167V42.0767C22.5981 42.03 22.7334 42.0067 22.8641 42.0067C23.2748 42.0067 23.6108 42.142 23.8721 42.4127C24.1334 42.674 24.2641 43.0193 24.2641 43.4487C24.2641 43.8593 24.1241 44.2 23.8441 44.4707C23.5734 44.732 23.2188 44.8627 22.7801 44.8627C22.3321 44.8627 21.9681 44.7273 21.6881 44.4567C21.4081 44.1767 21.2681 43.8173 21.2681 43.3787V41.5167C21.2681 40.938 21.4641 40.4573 21.8561 40.0747C22.2481 39.6827 22.7614 39.4307 23.3961 39.3187C24.1614 38.7587 24.7868 38.2127 25.2721 37.6807C24.9361 37.55 24.5488 37.4847 24.1101 37.4847C23.5128 37.4847 23.0134 37.606 22.6121 37.8487C22.2108 38.0913 21.9681 38.418 21.8841 38.8287H20.7361C20.8014 38.1193 21.1374 37.5593 21.7441 37.1487C22.3508 36.7287 23.1394 36.5187 24.1101 36.5187C24.8008 36.5187 25.4074 36.6353 25.9301 36.8687C26.1634 36.5047 26.3034 36.1733 26.3501 35.8747H27.7081ZM26.1541 38.8847C26.1541 38.642 26.0888 38.418 25.9581 38.2127C25.5474 38.586 25.0948 38.9453 24.6001 39.2907C25.2534 39.3747 25.7714 39.6127 26.1541 40.0047V38.8847ZM23.4941 43.4347C23.4941 43.248 23.4334 43.094 23.3121 42.9727C23.1908 42.842 23.0368 42.7767 22.8501 42.7767C22.6541 42.7767 22.4908 42.842 22.3601 42.9727C22.2388 43.094 22.1781 43.248 22.1781 43.4347C22.1781 43.6213 22.2388 43.78 22.3601 43.9107C22.4908 44.032 22.6541 44.0927 22.8501 44.0927C23.0368 44.0927 23.1908 44.032 23.3121 43.9107C23.4334 43.78 23.4941 43.6213 23.4941 43.4347ZM32.3712 36.5187C33.3325 36.5187 34.1025 36.738 34.6812 37.1767C35.2599 37.6153 35.5492 38.1987 35.5492 38.9267V42.8747C35.5492 43.5 35.2925 43.99 34.7792 44.3447C34.2659 44.69 33.5472 44.8627 32.6232 44.8627C31.6992 44.8627 30.9852 44.69 30.4812 44.3447C29.9772 43.99 29.7252 43.5 29.7252 42.8747V40.6347C29.7252 40.2053 29.8652 39.8553 30.1452 39.5847C30.4252 39.3047 30.7845 39.1647 31.2232 39.1647C31.6619 39.1647 32.0165 39.2953 32.2872 39.5567C32.5672 39.818 32.7072 40.1587 32.7072 40.5787C32.7072 40.9987 32.5765 41.3393 32.3152 41.6007C32.0539 41.862 31.7179 41.9927 31.3072 41.9927C31.1859 41.9927 31.0505 41.974 30.9012 41.9367V42.7627C30.9012 43.1267 31.0552 43.4067 31.3632 43.6027C31.6805 43.7987 32.1145 43.8967 32.6652 43.8967C33.2159 43.8967 33.6359 43.794 33.9252 43.5887C34.2145 43.3833 34.3592 43.094 34.3592 42.7207V38.9267C34.3592 38.488 34.1725 38.138 33.7992 37.8767C33.4352 37.6153 32.9499 37.4847 32.3432 37.4847C31.7552 37.4847 31.2559 37.606 30.8452 37.8487C30.4439 38.0913 30.2012 38.418 30.1172 38.8287H28.9692C29.0439 38.1193 29.3892 37.5593 30.0052 37.1487C30.6305 36.7287 31.4192 36.5187 32.3712 36.5187ZM31.2932 39.9347C31.0972 39.9347 30.9385 39.9953 30.8172 40.1167C30.6959 40.238 30.6352 40.392 30.6352 40.5787C30.6352 40.7653 30.6959 40.9193 30.8172 41.0407C30.9385 41.162 31.0972 41.2227 31.2932 41.2227C31.4799 41.2227 31.6339 41.162 31.7552 41.0407C31.8765 40.9193 31.9372 40.7653 31.9372 40.5787C31.9372 40.392 31.8765 40.238 31.7552 40.1167C31.6339 39.9953 31.4799 39.9347 31.2932 39.9347ZM44.578 36.6587V42.9727C44.578 43.5607 44.3167 44.0227 43.794 44.3587C43.2807 44.6947 42.5667 44.8627 41.652 44.8627C40.7373 44.8627 40.0187 44.6947 39.496 44.3587C38.9827 44.0227 38.726 43.5607 38.726 42.9727V39.3047C38.586 39.3513 38.4507 39.3747 38.32 39.3747C37.9093 39.3747 37.5687 39.244 37.298 38.9827C37.0367 38.712 36.906 38.362 36.906 37.9327C36.906 37.522 37.046 37.186 37.326 36.9247C37.606 36.654 37.9607 36.5187 38.39 36.5187C38.838 36.5187 39.202 36.6587 39.482 36.9387C39.7713 37.2093 39.916 37.564 39.916 38.0027V42.8467C39.916 43.1733 40.07 43.43 40.378 43.6167C40.686 43.8033 41.1107 43.8967 41.652 43.8967C42.1933 43.8967 42.618 43.8033 42.926 43.6167C43.234 43.43 43.388 43.1733 43.388 42.8467V36.6587H44.578ZM37.676 37.9467C37.676 38.1333 37.7367 38.292 37.858 38.4227C37.9887 38.544 38.1473 38.6047 38.334 38.6047C38.53 38.6047 38.6887 38.544 38.81 38.4227C38.9313 38.292 38.992 38.1333 38.992 37.9467C38.992 37.76 38.9313 37.606 38.81 37.4847C38.6887 37.354 38.53 37.2887 38.334 37.2887C38.1473 37.2887 37.9887 37.354 37.858 37.4847C37.7367 37.606 37.676 37.76 37.676 37.9467ZM49.6114 36.5187C50.5541 36.5187 51.3054 36.7753 51.8654 37.2887C52.4254 37.802 52.7054 38.488 52.7054 39.3467V44.7227H51.5294V39.4587C51.5294 38.8613 51.3474 38.3853 50.9834 38.0307C50.6194 37.6667 50.1341 37.4847 49.5274 37.4847C49.0234 37.4847 48.5754 37.6013 48.1834 37.8347C47.7914 38.0587 47.5208 38.3667 47.3714 38.7587C47.7074 38.796 48.0248 38.88 48.3234 39.0107C48.6221 39.1413 48.8508 39.2907 49.0094 39.4587V39.7107C48.6548 39.8133 48.3748 39.9953 48.1694 40.2567C47.9734 40.5087 47.8754 40.8073 47.8754 41.1527V42.1047C48.0434 42.0673 48.1788 42.0487 48.2814 42.0487C48.7014 42.0487 49.0421 42.1793 49.3034 42.4407C49.5648 42.6927 49.6954 43.0287 49.6954 43.4487C49.6954 43.8687 49.5554 44.2093 49.2754 44.4707C49.0048 44.732 48.6501 44.8627 48.2114 44.8627C47.7634 44.8627 47.3948 44.7273 47.1054 44.4567C46.8254 44.1767 46.6854 43.8173 46.6854 43.3787V41.1947C46.6854 40.8493 46.7741 40.5367 46.9514 40.2567C47.1381 39.9767 47.3901 39.7667 47.7074 39.6267C47.3341 39.496 46.8348 39.4167 46.2094 39.3887C46.2468 38.8193 46.4101 38.32 46.6994 37.8907C46.9981 37.452 47.3948 37.116 47.8894 36.8827C48.3934 36.64 48.9674 36.5187 49.6114 36.5187ZM48.9254 43.4487C48.9254 43.262 48.8601 43.108 48.7294 42.9867C48.6081 42.8653 48.4541 42.8047 48.2674 42.8047C48.0714 42.8047 47.9128 42.8653 47.7914 42.9867C47.6701 43.108 47.6094 43.262 47.6094 43.4487C47.6094 43.6447 47.6701 43.8033 47.7914 43.9247C47.9128 44.046 48.0714 44.1067 48.2674 44.1067C48.4541 44.1067 48.6081 44.046 48.7294 43.9247C48.8601 43.8033 48.9254 43.6447 48.9254 43.4487ZM58.3062 38.7587C58.3062 38.3667 58.1755 38.0587 57.9142 37.8347C57.6622 37.6013 57.3122 37.4847 56.8642 37.4847C56.3975 37.4847 56.0242 37.6153 55.7442 37.8767C55.4642 38.138 55.3242 38.4927 55.3242 38.9407H54.1622C54.1622 38.194 54.4049 37.606 54.8902 37.1767C55.3755 36.738 56.0335 36.5187 56.8642 36.5187C57.6762 36.5187 58.3155 36.7193 58.7822 37.1207C59.2582 37.5127 59.4962 38.0493 59.4962 38.7307V44.7227H58.3062V38.7587ZM68.0971 36.6587V44.7227H66.9771C66.5758 44.368 66.1278 44.0553 65.6331 43.7847C65.1384 43.5047 64.6764 43.2993 64.2471 43.1687C64.2564 43.206 64.2611 43.262 64.2611 43.3367C64.2611 43.7847 64.1118 44.1533 63.8131 44.4427C63.5144 44.7227 63.1364 44.8627 62.6791 44.8627C62.2218 44.8627 61.8484 44.7227 61.5591 44.4427C61.2791 44.1533 61.1391 43.7893 61.1391 43.3507C61.1391 42.912 61.2838 42.5573 61.5731 42.2867C61.8624 42.0067 62.2404 41.8667 62.7071 41.8667C62.7724 41.8667 62.8238 41.8713 62.8611 41.8807V39.3047C62.7211 39.3513 62.5858 39.3747 62.4551 39.3747C62.0444 39.3747 61.7084 39.244 61.4471 38.9827C61.1858 38.712 61.0551 38.362 61.0551 37.9327C61.0551 37.522 61.1904 37.186 61.4611 36.9247C61.7411 36.654 62.1004 36.5187 62.5391 36.5187C62.9871 36.5187 63.3511 36.6587 63.6311 36.9387C63.9111 37.2093 64.0511 37.564 64.0511 38.0027V42.0767C64.5831 42.2353 65.1011 42.4407 65.6051 42.6927C66.1091 42.9447 66.5431 43.206 66.9071 43.4767V36.6587H68.0971ZM61.8251 37.9467C61.8251 38.1333 61.8858 38.292 62.0071 38.4227C62.1284 38.544 62.2824 38.6047 62.4691 38.6047C62.6651 38.6047 62.8238 38.544 62.9451 38.4227C63.0758 38.292 63.1411 38.1333 63.1411 37.9467C63.1411 37.76 63.0758 37.606 62.9451 37.4847C62.8238 37.354 62.6651 37.2887 62.4691 37.2887C62.2824 37.2887 62.1284 37.354 62.0071 37.4847C61.8858 37.606 61.8251 37.76 61.8251 37.9467ZM62.6371 44.0507C62.8424 44.0507 63.0104 43.99 63.1411 43.8687C63.2718 43.738 63.3371 43.57 63.3371 43.3647C63.3371 43.1687 63.2718 43.01 63.1411 42.8887C63.0104 42.758 62.8424 42.6927 62.6371 42.6927C62.4411 42.6927 62.2778 42.758 62.1471 42.8887C62.0258 43.01 61.9651 43.1687 61.9651 43.3647C61.9651 43.57 62.0258 43.738 62.1471 43.8687C62.2778 43.99 62.4411 44.0507 62.6371 44.0507ZM77.2707 37.9327C77.2707 38.194 77.2147 38.432 77.1027 38.6467C76.9907 38.852 76.8367 39.0153 76.6407 39.1367C76.8834 39.426 77.0047 39.8227 77.0047 40.3267V44.7227H75.8147V40.3267C75.8147 39.8973 75.6934 39.6827 75.4507 39.6827C75.2547 39.6827 75.0541 39.86 74.8487 40.2147L72.3287 44.7227H71.2787V39.3047C71.1387 39.3513 71.0034 39.3747 70.8727 39.3747C70.4621 39.3747 70.1214 39.244 69.8507 38.9827C69.5894 38.712 69.4587 38.362 69.4587 37.9327C69.4587 37.522 69.5987 37.186 69.8787 36.9247C70.1587 36.654 70.5134 36.5187 70.9427 36.5187C71.3907 36.5187 71.7547 36.6587 72.0347 36.9387C72.3241 37.2093 72.4687 37.564 72.4687 38.0027V41.7967C72.4687 42.1047 72.4501 42.38 72.4127 42.6227C72.3754 42.856 72.3521 43.0007 72.3427 43.0567L74.1627 39.7247C74.3774 39.3513 74.6014 39.1087 74.8347 38.9967C74.6947 38.866 74.5874 38.712 74.5127 38.5347C74.4381 38.348 74.4007 38.1473 74.4007 37.9327C74.4007 37.522 74.5314 37.186 74.7927 36.9247C75.0634 36.654 75.4087 36.5187 75.8287 36.5187C76.2487 36.5187 76.5941 36.654 76.8647 36.9247C77.1354 37.186 77.2707 37.522 77.2707 37.9327ZM70.2287 37.9467C70.2287 38.1333 70.2894 38.292 70.4107 38.4227C70.5414 38.544 70.7001 38.6047 70.8867 38.6047C71.0827 38.6047 71.2414 38.544 71.3627 38.4227C71.4841 38.292 71.5447 38.1333 71.5447 37.9467C71.5447 37.76 71.4841 37.606 71.3627 37.4847C71.2414 37.354 71.0827 37.2887 70.8867 37.2887C70.7001 37.2887 70.5414 37.354 70.4107 37.4847C70.2894 37.606 70.2287 37.76 70.2287 37.9467ZM75.8287 37.2887C75.6421 37.2887 75.4881 37.354 75.3667 37.4847C75.2454 37.606 75.1847 37.76 75.1847 37.9467C75.1847 38.1333 75.2454 38.292 75.3667 38.4227C75.4881 38.544 75.6421 38.6047 75.8287 38.6047C76.0247 38.6047 76.1834 38.544 76.3047 38.4227C76.4261 38.292 76.4867 38.1333 76.4867 37.9467C76.4867 37.76 76.4261 37.606 76.3047 37.4847C76.1834 37.354 76.0247 37.2887 75.8287 37.2887ZM78.4711 31.4927C78.3871 32.2113 78.1304 32.8413 77.7011 33.3827C77.2624 33.924 76.6931 34.344 75.9931 34.6427C75.2931 34.932 74.5138 35.0767 73.6551 35.0767H73.1231V34.5167C73.3564 34.4233 73.5851 34.2927 73.8091 34.1247C74.0331 33.9567 74.2244 33.77 74.3831 33.5647C74.3364 33.574 74.2664 33.5787 74.1731 33.5787C73.8278 33.5787 73.5571 33.476 73.3611 33.2707C73.1651 33.056 73.0671 32.7807 73.0671 32.4447C73.0671 32.118 73.1791 31.852 73.4031 31.6467C73.6271 31.432 73.9164 31.3247 74.2711 31.3247C74.6258 31.3247 74.9198 31.4367 75.1531 31.6607C75.3771 31.8847 75.4891 32.1833 75.4891 32.5567C75.4891 32.8367 75.4191 33.14 75.2791 33.4667C75.1298 33.784 74.9338 34.0453 74.6911 34.2507C75.4284 34.148 76.0491 33.84 76.5531 33.3267C77.0478 32.804 77.3324 32.1927 77.4071 31.4927H78.4711ZM73.7531 32.4727C73.7531 32.622 73.8044 32.748 73.9071 32.8507C74.0004 32.944 74.1218 32.9907 74.2711 32.9907C74.4204 32.9907 74.5464 32.944 74.6491 32.8507C74.7424 32.748 74.7891 32.622 74.7891 32.4727C74.7891 32.3233 74.7424 32.202 74.6491 32.1087C74.5464 32.006 74.4204 31.9547 74.2711 31.9547C74.1124 31.9547 73.9864 32.0013 73.8931 32.0947C73.7998 32.188 73.7531 32.314 73.7531 32.4727ZM82.0411 36.5187C83.0024 36.5187 83.7724 36.738 84.3511 37.1767C84.9298 37.6153 85.2191 38.1987 85.2191 38.9267V42.8747C85.2191 43.5 84.9624 43.99 84.4491 44.3447C83.9358 44.69 83.2171 44.8627 82.2931 44.8627C81.3691 44.8627 80.6551 44.69 80.1511 44.3447C79.6471 43.99 79.3951 43.5 79.3951 42.8747V40.6347C79.3951 40.2053 79.5351 39.8553 79.8151 39.5847C80.0951 39.3047 80.4544 39.1647 80.8931 39.1647C81.3318 39.1647 81.6864 39.2953 81.9571 39.5567C82.2371 39.818 82.3771 40.1587 82.3771 40.5787C82.3771 40.9987 82.2464 41.3393 81.9851 41.6007C81.7238 41.862 81.3878 41.9927 80.9771 41.9927C80.8558 41.9927 80.7204 41.974 80.5711 41.9367V42.7627C80.5711 43.1267 80.7251 43.4067 81.0331 43.6027C81.3504 43.7987 81.7844 43.8967 82.3351 43.8967C82.8858 43.8967 83.3058 43.794 83.5951 43.5887C83.8844 43.3833 84.0291 43.094 84.0291 42.7207V38.9267C84.0291 38.488 83.8424 38.138 83.4691 37.8767C83.1051 37.6153 82.6198 37.4847 82.0131 37.4847C81.4251 37.4847 80.9258 37.606 80.5151 37.8487C80.1138 38.0913 79.8711 38.418 79.7871 38.8287H78.6391C78.7138 38.1193 79.0591 37.5593 79.6751 37.1487C80.3004 36.7287 81.0891 36.5187 82.0411 36.5187ZM80.9631 39.9347C80.7671 39.9347 80.6084 39.9953 80.4871 40.1167C80.3658 40.238 80.3051 40.392 80.3051 40.5787C80.3051 40.7653 80.3658 40.9193 80.4871 41.0407C80.6084 41.162 80.7671 41.2227 80.9631 41.2227C81.1498 41.2227 81.3038 41.162 81.4251 41.0407C81.5464 40.9193 81.6071 40.7653 81.6071 40.5787C81.6071 40.392 81.5464 40.238 81.4251 40.1167C81.3038 39.9953 81.1498 39.9347 80.9631 39.9347ZM90.0479 36.5187C90.4959 36.5187 90.8599 36.6587 91.1399 36.9387C91.4292 37.2093 91.5739 37.564 91.5739 38.0027V44.7227H90.3979L86.5479 40.5227L87.2059 39.8087L90.3839 43.2527V39.3047C90.2439 39.3513 90.1086 39.3747 89.9779 39.3747C89.5672 39.3747 89.2266 39.244 88.9559 38.9827C88.6946 38.712 88.5639 38.362 88.5639 37.9327C88.5639 37.522 88.7039 37.186 88.9839 36.9247C89.2639 36.654 89.6186 36.5187 90.0479 36.5187ZM89.3339 37.9467C89.3339 38.1333 89.3946 38.292 89.5159 38.4227C89.6466 38.544 89.8052 38.6047 89.9919 38.6047C90.1879 38.6047 90.3466 38.544 90.4679 38.4227C90.5892 38.292 90.6499 38.1333 90.6499 37.9467C90.6499 37.76 90.5892 37.606 90.4679 37.4847C90.3466 37.354 90.1879 37.2887 89.9919 37.2887C89.8052 37.2887 89.6466 37.354 89.5159 37.4847C89.3946 37.606 89.3339 37.76 89.3339 37.9467ZM101.655 36.6587V44.7227H100.353L98.2113 38.1147L96.0693 44.7227H94.7673V39.3047C94.6273 39.3513 94.4873 39.3747 94.3473 39.3747C93.9367 39.3747 93.596 39.244 93.3253 38.9827C93.064 38.712 92.9333 38.362 92.9333 37.9327C92.9333 37.522 93.0733 37.186 93.3533 36.9247C93.6333 36.654 93.988 36.5187 94.4173 36.5187C94.8653 36.5187 95.2293 36.6587 95.5093 36.9387C95.7987 37.2093 95.9433 37.564 95.9433 38.0027V41.7267C95.9433 41.96 95.92 42.3427 95.8733 42.8747L96.1673 41.6707L97.7353 36.7147H98.7013L100.255 41.6707L100.549 42.8747C100.503 42.3427 100.479 41.96 100.479 41.7267V36.6587H101.655ZM93.7033 37.9467C93.7033 38.1333 93.764 38.292 93.8853 38.4227C94.016 38.544 94.1747 38.6047 94.3613 38.6047C94.5573 38.6047 94.716 38.544 94.8373 38.4227C94.9587 38.292 95.0193 38.1333 95.0193 37.9467C95.0193 37.76 94.9587 37.606 94.8373 37.4847C94.716 37.354 94.5573 37.2887 94.3613 37.2887C94.1747 37.2887 94.016 37.354 93.8853 37.4847C93.764 37.606 93.7033 37.76 93.7033 37.9467ZM101.749 35.4547C101.068 35.184 100.289 34.9787 99.4115 34.8387C98.5248 34.6893 97.6662 34.6147 96.8355 34.6147C96.2568 34.6147 95.7668 34.6473 95.3655 34.7127C95.4122 33.938 95.7062 33.322 96.2475 32.8647C96.7888 32.4073 97.4982 32.1787 98.3755 32.1787C99.3462 32.1787 100.13 32.468 100.727 33.0467C101.315 33.616 101.656 34.4187 101.749 35.4547ZM100.685 34.4607C100.471 33.9567 100.163 33.5787 99.7615 33.3267C99.3602 33.0747 98.8982 32.9487 98.3755 32.9487C97.9088 32.9487 97.5075 33.042 97.1715 33.2287C96.8355 33.4153 96.6115 33.658 96.4995 33.9567C96.6768 33.938 96.9568 33.9287 97.3395 33.9287C97.9275 33.9287 98.5202 33.9753 99.1175 34.0687C99.7148 34.162 100.237 34.2927 100.685 34.4607ZM107.602 44.8627C107.126 44.8627 106.738 44.7553 106.44 44.5407C106.141 44.326 105.959 44.0227 105.894 43.6307L105.614 41.9367C105.464 42.0113 105.301 42.0487 105.124 42.0487C104.732 42.0487 104.405 41.9273 104.144 41.6847C103.892 41.442 103.766 41.134 103.766 40.7607C103.766 40.378 103.896 40.0653 104.158 39.8227C104.428 39.58 104.755 39.4587 105.138 39.4587C105.474 39.4587 105.768 39.5613 106.02 39.7667C106.272 39.9627 106.421 40.2147 106.468 40.5227L106.972 43.4627C106.99 43.6027 107.056 43.7147 107.168 43.7987C107.289 43.8733 107.434 43.9107 107.602 43.9107C107.807 43.9107 107.966 43.8593 108.078 43.7567C108.19 43.6447 108.246 43.4953 108.246 43.3087V38.8287C108.246 38.418 108.078 38.0913 107.742 37.8487C107.406 37.606 106.953 37.4847 106.383 37.4847C105.824 37.4847 105.352 37.606 104.97 37.8487C104.587 38.0913 104.358 38.418 104.284 38.8287H103.094C103.159 38.1287 103.486 37.5687 104.074 37.1487C104.671 36.7287 105.45 36.5187 106.412 36.5187C107.326 36.5187 108.059 36.7193 108.61 37.1207C109.16 37.522 109.436 38.0633 109.436 38.7447V43.2527C109.436 43.7753 109.277 44.1767 108.96 44.4567C108.652 44.7273 108.199 44.8627 107.602 44.8627ZM105.082 41.3487C105.259 41.3487 105.399 41.2927 105.502 41.1807C105.614 41.0687 105.67 40.924 105.67 40.7467C105.67 40.5693 105.614 40.4293 105.502 40.3267C105.399 40.2147 105.259 40.1587 105.082 40.1587C104.904 40.1587 104.76 40.2147 104.648 40.3267C104.536 40.4293 104.48 40.5693 104.48 40.7467C104.48 40.924 104.536 41.0687 104.648 41.1807C104.76 41.2927 104.904 41.3487 105.082 41.3487ZM115.031 38.7587C115.031 38.3667 114.9 38.0587 114.639 37.8347C114.387 37.6013 114.037 37.4847 113.589 37.4847C113.122 37.4847 112.749 37.6153 112.469 37.8767C112.189 38.138 112.049 38.4927 112.049 38.9407H110.887C110.887 38.194 111.129 37.606 111.615 37.1767C112.1 36.738 112.758 36.5187 113.589 36.5187C114.401 36.5187 115.04 36.7193 115.507 37.1207C115.983 37.5127 116.221 38.0493 116.221 38.7307V44.7227H115.031V38.7587ZM119.908 37.4847C119.674 37.4847 119.469 37.5593 119.292 37.7087C119.124 37.8487 119.03 38.054 119.012 38.3247C120.057 38.4553 120.944 38.684 121.672 39.0107C122.4 39.3373 122.764 39.7433 122.764 40.2287V43.3787C122.764 43.8173 122.619 44.1767 122.33 44.4567C122.05 44.7273 121.686 44.8627 121.238 44.8627C120.799 44.8627 120.44 44.732 120.16 44.4707C119.889 44.2 119.754 43.8593 119.754 43.4487C119.754 43.0193 119.884 42.674 120.146 42.4127C120.407 42.142 120.748 42.0067 121.168 42.0067C121.298 42.0067 121.434 42.03 121.574 42.0767V40.3827C121.574 40.1213 121.228 39.8787 120.538 39.6547C119.847 39.4213 118.914 39.23 117.738 39.0807C117.747 38.2593 117.929 37.6293 118.284 37.1907C118.648 36.7427 119.142 36.5187 119.768 36.5187C120.001 36.5187 120.225 36.542 120.44 36.5887C120.654 36.6353 120.948 36.71 121.322 36.8127C121.723 36.934 121.984 36.9947 122.106 36.9947C122.218 36.9947 122.32 36.948 122.414 36.8547C122.507 36.7613 122.572 36.6307 122.61 36.4627L123.506 36.7147C123.394 37.1067 123.23 37.41 123.016 37.6247C122.801 37.8393 122.554 37.9467 122.274 37.9467C122.143 37.9467 121.975 37.9233 121.77 37.8767C121.564 37.83 121.354 37.7787 121.14 37.7227C121.084 37.704 120.911 37.662 120.622 37.5967C120.342 37.522 120.104 37.4847 119.908 37.4847ZM121.182 44.0927C121.378 44.0927 121.536 44.032 121.658 43.9107C121.779 43.78 121.84 43.6213 121.84 43.4347C121.84 43.248 121.779 43.094 121.658 42.9727C121.536 42.842 121.378 42.7767 121.182 42.7767C120.986 42.7767 120.827 42.842 120.706 42.9727C120.584 43.094 120.524 43.248 120.524 43.4347C120.524 43.6213 120.584 43.78 120.706 43.9107C120.827 44.032 120.986 44.0927 121.182 44.0927ZM134.109 42.1187C134.398 42.2213 134.622 42.3847 134.781 42.6087C134.949 42.8327 135.033 43.0847 135.033 43.3647C135.033 43.8127 134.893 44.1767 134.613 44.4567C134.342 44.7273 133.992 44.8627 133.563 44.8627C133.134 44.8627 132.784 44.7273 132.513 44.4567C132.252 44.186 132.121 43.8407 132.121 43.4207C131.57 43.7007 131.122 44.1347 130.777 44.7227H129.573V39.4027C129.573 38.7867 129.428 38.3153 129.139 37.9887C128.859 37.6527 128.434 37.4847 127.865 37.4847C127.37 37.4847 126.941 37.5967 126.577 37.8207C126.213 38.0447 125.956 38.3573 125.807 38.7587C126.152 38.8053 126.465 38.8893 126.745 39.0107C127.034 39.1227 127.268 39.272 127.445 39.4587V39.7107C127.109 39.8133 126.834 39.986 126.619 40.2287C126.414 40.4713 126.311 40.7793 126.311 41.1527V42.1047C126.479 42.0673 126.614 42.0487 126.717 42.0487C127.137 42.0487 127.478 42.1793 127.739 42.4407C128 42.6927 128.131 43.0287 128.131 43.4487C128.131 43.8687 127.991 44.2093 127.711 44.4707C127.44 44.732 127.086 44.8627 126.647 44.8627C126.199 44.8627 125.83 44.7273 125.541 44.4567C125.261 44.1767 125.121 43.8173 125.121 43.3787V41.1947C125.121 40.8307 125.205 40.518 125.373 40.2567C125.55 39.986 125.807 39.776 126.143 39.6267C125.798 39.5053 125.298 39.426 124.645 39.3887C124.682 38.8193 124.841 38.32 125.121 37.8907C125.41 37.452 125.793 37.116 126.269 36.8827C126.754 36.64 127.305 36.5187 127.921 36.5187C128.808 36.5187 129.498 36.7613 129.993 37.2467C130.488 37.732 130.735 38.4133 130.735 39.2907V43.4207C131.071 43.0287 131.514 42.702 132.065 42.4407C132.392 42.2727 132.648 42.1233 132.835 41.9927C133.031 41.862 133.185 41.6987 133.297 41.5027C133.409 41.2973 133.465 41.0453 133.465 40.7467V36.6587H134.641V40.7887C134.641 41.078 134.594 41.3393 134.501 41.5727C134.408 41.806 134.277 41.988 134.109 42.1187ZM133.563 44.0927C133.75 44.0927 133.904 44.032 134.025 43.9107C134.156 43.78 134.221 43.6213 134.221 43.4347C134.221 43.248 134.156 43.094 134.025 42.9727C133.904 42.842 133.75 42.7767 133.563 42.7767C133.376 42.7767 133.218 42.842 133.087 42.9727C132.966 43.094 132.905 43.248 132.905 43.4347C132.905 43.6213 132.966 43.78 133.087 43.9107C133.218 44.032 133.376 44.0927 133.563 44.0927ZM127.361 43.4487C127.361 43.262 127.296 43.108 127.165 42.9867C127.044 42.8653 126.89 42.8047 126.703 42.8047C126.507 42.8047 126.348 42.8653 126.227 42.9867C126.106 43.108 126.045 43.262 126.045 43.4487C126.045 43.6447 126.106 43.8033 126.227 43.9247C126.348 44.046 126.507 44.1067 126.703 44.1067C126.89 44.1067 127.044 44.046 127.165 43.9247C127.296 43.8033 127.361 43.6447 127.361 43.4487ZM140.242 38.7587C140.242 38.3667 140.111 38.0587 139.85 37.8347C139.598 37.6013 139.248 37.4847 138.8 37.4847C138.333 37.4847 137.96 37.6153 137.68 37.8767C137.4 38.138 137.26 38.4927 137.26 38.9407H136.098C136.098 38.194 136.34 37.606 136.826 37.1767C137.311 36.738 137.969 36.5187 138.8 36.5187C139.612 36.5187 140.251 36.7193 140.718 37.1207C141.194 37.5127 141.432 38.0493 141.432 38.7307V44.7227H140.242V38.7587ZM146.547 36.5187C147.573 36.5187 148.385 36.7613 148.983 37.2467C149.58 37.7227 149.879 38.3713 149.879 39.1927V44.7227H148.689V39.3047C148.689 38.7447 148.497 38.3013 148.115 37.9747C147.732 37.648 147.209 37.4847 146.547 37.4847C145.828 37.4847 145.259 37.6667 144.839 38.0307C144.428 38.3947 144.223 38.8847 144.223 39.5007C144.223 39.706 144.246 39.9627 144.293 40.2707C144.349 40.5693 144.386 40.7607 144.405 40.8447C144.433 40.9567 144.465 41.1247 144.503 41.3487C144.652 40.658 144.899 40.1027 145.245 39.6827C145.599 39.2533 146.029 39.0387 146.533 39.0387C146.943 39.0387 147.27 39.1507 147.513 39.3747C147.755 39.5893 147.877 39.8927 147.877 40.2847C147.877 40.658 147.76 40.966 147.527 41.2087C147.293 41.442 146.99 41.5587 146.617 41.5587C146.402 41.5587 146.192 41.512 145.987 41.4187C145.791 41.316 145.641 41.1713 145.539 40.9847C145.352 41.274 145.193 41.6333 145.063 42.0627C144.932 42.492 144.867 42.8933 144.867 43.2667V44.7227H143.691V42.7207C143.691 42.5807 143.663 42.3847 143.607 42.1327C143.551 41.8807 143.49 41.624 143.425 41.3627C143.182 40.4853 143.061 39.846 143.061 39.4447C143.061 38.5487 143.373 37.8393 143.999 37.3167C144.624 36.7847 145.473 36.5187 146.547 36.5187ZM146.589 39.6967C146.411 39.6967 146.267 39.7527 146.155 39.8647C146.052 39.9673 146.001 40.1073 146.001 40.2847C146.001 40.462 146.052 40.6067 146.155 40.7187C146.267 40.8307 146.411 40.8867 146.589 40.8867C146.766 40.8867 146.906 40.8307 147.009 40.7187C147.121 40.6067 147.177 40.462 147.177 40.2847C147.177 40.1073 147.121 39.9673 147.009 39.8647C146.906 39.7527 146.766 39.6967 146.589 39.6967ZM154.912 36.5187C155.92 36.5187 156.714 36.7707 157.292 37.2747C157.871 37.7787 158.16 38.4693 158.16 39.3467V44.7227H156.97V39.4447C156.97 38.8193 156.784 38.3387 156.41 38.0027C156.046 37.6573 155.547 37.4847 154.912 37.4847C154.427 37.4847 154.016 37.578 153.68 37.7647C153.344 37.9513 153.092 38.1893 152.924 38.4787C152.756 38.768 152.672 39.0713 152.672 39.3887C152.672 39.594 152.696 39.818 152.742 40.0607C152.798 40.3033 152.878 40.63 152.98 41.0407C153.074 41.414 153.144 41.7173 153.19 41.9507C153.237 42.184 153.26 42.394 153.26 42.5807V42.8467C153.456 42.5573 153.816 42.184 154.338 41.7267L154.66 41.4187C154.343 41.372 154.086 41.2367 153.89 41.0127C153.704 40.7887 153.61 40.518 153.61 40.2007C153.61 39.846 153.727 39.552 153.96 39.3187C154.203 39.0853 154.511 38.9687 154.884 38.9687C155.248 38.9687 155.552 39.09 155.794 39.3327C156.037 39.566 156.158 39.8693 156.158 40.2427C156.158 40.5973 156.046 40.9287 155.822 41.2367C155.608 41.5447 155.276 41.9227 154.828 42.3707C154.362 42.828 154.002 43.2293 153.75 43.5747C153.508 43.92 153.363 44.3027 153.316 44.7227H152.14V42.7627C152.14 42.5573 152.052 42.1 151.874 41.3907C151.753 40.9427 151.66 40.56 151.594 40.2427C151.529 39.916 151.496 39.6267 151.496 39.3747C151.496 38.852 151.632 38.376 151.902 37.9467C152.173 37.508 152.565 37.1627 153.078 36.9107C153.601 36.6493 154.212 36.5187 154.912 36.5187ZM154.282 40.2007C154.282 40.378 154.338 40.5227 154.45 40.6347C154.562 40.7467 154.707 40.8027 154.884 40.8027C155.062 40.8027 155.202 40.7467 155.304 40.6347C155.416 40.5227 155.472 40.378 155.472 40.2007C155.472 40.0233 155.416 39.8833 155.304 39.7807C155.202 39.6687 155.062 39.6127 154.884 39.6127C154.707 39.6127 154.562 39.6687 154.45 39.7807C154.338 39.8833 154.282 40.0233 154.282 40.2007ZM158.007 34.7407C158.044 34.8993 158.081 35.1373 158.119 35.4547C157.437 35.184 156.658 34.9787 155.781 34.8387C154.894 34.6893 154.035 34.6147 153.205 34.6147C152.626 34.6147 152.136 34.6473 151.735 34.7127C151.781 33.938 152.075 33.322 152.617 32.8647C153.158 32.4073 153.867 32.1787 154.745 32.1787C155.659 32.1787 156.411 32.4353 156.999 32.9487V31.3947H158.007V34.7407ZM153.709 33.9287C154.297 33.9287 154.889 33.9753 155.487 34.0687C156.084 34.162 156.607 34.2927 157.055 34.4607C156.84 33.9567 156.532 33.5787 156.131 33.3267C155.729 33.0747 155.267 32.9487 154.745 32.9487C154.278 32.9487 153.877 33.042 153.541 33.2287C153.205 33.4153 152.981 33.658 152.869 33.9567C153.046 33.938 153.326 33.9287 153.709 33.9287ZM165.857 36.5187C166.856 36.5187 167.355 37.0927 167.355 38.2407V44.7227H166.165V38.2547C166.165 37.7787 166.011 37.5407 165.703 37.5407C165.554 37.5407 165.437 37.578 165.353 37.6527C165.279 37.718 165.213 37.8207 165.157 37.9607L162.581 44.7227H161.335V39.3047C161.195 39.3513 161.06 39.3747 160.929 39.3747C160.519 39.3747 160.178 39.244 159.907 38.9827C159.646 38.712 159.515 38.362 159.515 37.9327C159.515 37.522 159.655 37.186 159.935 36.9247C160.215 36.654 160.57 36.5187 160.999 36.5187C161.447 36.5187 161.811 36.6587 162.091 36.9387C162.381 37.2093 162.525 37.564 162.525 38.0027V41.6707C162.525 42.044 162.488 42.52 162.413 43.0987L162.805 41.6147L164.219 37.7787C164.527 36.9387 165.073 36.5187 165.857 36.5187ZM160.285 37.9467C160.285 38.1333 160.346 38.292 160.467 38.4227C160.598 38.544 160.757 38.6047 160.943 38.6047C161.139 38.6047 161.298 38.544 161.419 38.4227C161.541 38.292 161.601 38.1333 161.601 37.9467C161.601 37.76 161.541 37.606 161.419 37.4847C161.298 37.354 161.139 37.2887 160.943 37.2887C160.757 37.2887 160.598 37.354 160.467 37.4847C160.346 37.606 160.285 37.76 160.285 37.9467ZM167.208 34.7407C167.245 34.8993 167.282 35.1373 167.32 35.4547C166.638 35.184 165.859 34.9787 164.982 34.8387C164.095 34.6893 163.236 34.6147 162.406 34.6147C161.827 34.6147 161.337 34.6473 160.936 34.7127C160.982 33.938 161.276 33.322 161.818 32.8647C162.359 32.4073 163.068 32.1787 163.946 32.1787C164.86 32.1787 165.612 32.4353 166.2 32.9487V31.3947H167.208V34.7407ZM162.91 33.9287C163.498 33.9287 164.09 33.9753 164.688 34.0687C165.285 34.162 165.808 34.2927 166.256 34.4607C166.041 33.9567 165.733 33.5787 165.332 33.3267C164.93 33.0747 164.468 32.9487 163.946 32.9487C163.479 32.9487 163.078 33.042 162.742 33.2287C162.406 33.4153 162.182 33.658 162.07 33.9567C162.247 33.938 162.527 33.9287 162.91 33.9287ZM166.214 27.9227H167.194V30.6247H166.214V27.9227ZM175.731 42.1187C176.02 42.2213 176.249 42.3847 176.417 42.6087C176.585 42.8327 176.669 43.0847 176.669 43.3647C176.669 43.8127 176.529 44.1767 176.249 44.4567C175.969 44.7273 175.614 44.8627 175.185 44.8627C174.765 44.8627 174.419 44.7273 174.149 44.4567C173.878 44.186 173.743 43.836 173.743 43.4067V43.3507C173.36 43.5 172.991 43.696 172.637 43.9387C172.282 44.1813 171.997 44.4427 171.783 44.7227H170.537V39.3047C170.397 39.3513 170.261 39.3747 170.131 39.3747C169.72 39.3747 169.379 39.244 169.109 38.9827C168.847 38.712 168.717 38.362 168.717 37.9327C168.717 37.522 168.857 37.186 169.137 36.9247C169.417 36.654 169.771 36.5187 170.201 36.5187C170.649 36.5187 171.013 36.6587 171.293 36.9387C171.582 37.2093 171.727 37.564 171.727 38.0027V43.5467C171.979 43.276 172.497 42.954 173.281 42.5807C173.794 42.338 174.177 42.128 174.429 41.9507C174.681 41.7733 174.853 41.596 174.947 41.4187C175.04 41.232 175.087 41.008 175.087 40.7467V36.6587H176.277V40.7887C176.277 41.078 176.23 41.3393 176.137 41.5727C176.043 41.806 175.908 41.988 175.731 42.1187ZM169.487 37.9467C169.487 38.1333 169.547 38.292 169.669 38.4227C169.799 38.544 169.958 38.6047 170.145 38.6047C170.341 38.6047 170.499 38.544 170.621 38.4227C170.742 38.292 170.803 38.1333 170.803 37.9467C170.803 37.76 170.742 37.606 170.621 37.4847C170.499 37.354 170.341 37.2887 170.145 37.2887C169.958 37.2887 169.799 37.354 169.669 37.4847C169.547 37.606 169.487 37.76 169.487 37.9467ZM175.185 44.0927C175.381 44.0927 175.539 44.032 175.661 43.9107C175.782 43.78 175.843 43.6213 175.843 43.4347C175.843 43.248 175.782 43.094 175.661 42.9727C175.539 42.842 175.381 42.7767 175.185 42.7767C174.998 42.7767 174.844 42.842 174.723 42.9727C174.601 43.094 174.541 43.248 174.541 43.4347C174.541 43.6213 174.601 43.78 174.723 43.9107C174.844 44.032 174.998 44.0927 175.185 44.0927ZM176.259 34.7407C176.296 34.8993 176.333 35.1373 176.371 35.4547C175.689 35.184 174.91 34.9787 174.033 34.8387C173.146 34.6893 172.287 34.6147 171.457 34.6147C170.878 34.6147 170.388 34.6473 169.987 34.7127C170.033 33.938 170.327 33.322 170.869 32.8647C171.41 32.4073 172.119 32.1787 172.997 32.1787C173.911 32.1787 174.663 32.4353 175.251 32.9487V31.3947H176.259V34.7407ZM171.961 33.9287C172.549 33.9287 173.141 33.9753 173.739 34.0687C174.336 34.162 174.859 34.2927 175.307 34.4607C175.092 33.9567 174.784 33.5787 174.383 33.3267C173.981 33.0747 173.519 32.9487 172.997 32.9487C172.53 32.9487 172.129 33.042 171.793 33.2287C171.457 33.4153 171.233 33.658 171.121 33.9567C171.298 33.938 171.578 33.9287 171.961 33.9287ZM175.265 27.9227H176.245V30.6247H175.265V27.9227Z" fill="white"/>
<defs>
<filter id="filter0_d_7088_6050" x="201" y="0.826172" width="80" height="80" filterUnits="userSpaceOnUse" color-interpolation-filters="sRGB">
<feFlood flood-opacity="0" result="BackgroundImageFix"/>
<feColorMatrix in="SourceAlpha" type="matrix" values="0 0 0 0 0 0 0 0 0 0 0 0 0 0 0 0 0 0 127 0" result="hardAlpha"/>
<feOffset dx="1" dy="2"/>
<feGaussianBlur stdDeviation="4"/>
<feColorMatrix type="matrix" values="0 0 0 0 0.224706 0 0 0 0 0.283742 0 0 0 0 0.493049 0 0 0 0.36 0"/>
<feBlend mode="normal" in2="BackgroundImageFix" result="effect1_dropShadow_7088_6050"/>
<feBlend mode="normal" in="SourceGraphic" in2="effect1_dropShadow_7088_6050" result="shape"/>
</filter>
<filter id="filter1_d_7088_6050" x="0.476562" y="14.5254" width="206.109" height="54" filterUnits="userSpaceOnUse" color-interpolation-filters="sRGB">
<feFlood flood-opacity="0" result="BackgroundImageFix"/>
<feColorMatrix in="SourceAlpha" type="matrix" values="0 0 0 0 0 0 0 0 0 0 0 0 0 0 0 0 0 0 127 0" result="hardAlpha"/>
<feOffset dx="1" dy="2"/>
<feGaussianBlur stdDeviation="4"/>
<feComposite in2="hardAlpha" operator="out"/>
<feColorMatrix type="matrix" values="0 0 0 0 0.351238 0 0 0 0 0.477873 0 0 0 0 0.549105 0 0 0 0.12 0"/>
<feBlend mode="normal" in2="BackgroundImageFix" result="effect1_dropShadow_7088_6050"/>
<feBlend mode="normal" in="SourceGraphic" in2="effect1_dropShadow_7088_6050" result="shape"/>
</filter>
<linearGradient id="paint0_linear_7088_6050" x1="244.29" y1="24.6722" x2="228.618" y2="41.4317" gradientUnits="userSpaceOnUse">
<stop stop-color="#6CC6ED"/>
<stop offset="1" stop-color="#6CC6ED" stop-opacity="0"/>
</linearGradient>
</defs>
</svg>
