<svg width="15" height="11" viewBox="0 0 15 11" fill="none" xmlns="http://www.w3.org/2000/svg">
<path d="M7.5 3.3C6.95751 3.3 6.43724 3.53178 6.05365 3.94436C5.67005 4.35694 5.45455 4.91652 5.45455 5.5C5.45455 6.08348 5.67005 6.64306 6.05365 7.05564C6.43724 7.46822 6.95751 7.7 7.5 7.7C8.04249 7.7 8.56276 7.46822 8.94636 7.05564C9.32995 6.64306 9.54546 6.08348 9.54546 5.5C9.54546 4.91652 9.32995 4.35694 8.94636 3.94436C8.56276 3.53178 8.04249 3.3 7.5 3.3ZM7.5 9.16667C6.59585 9.16667 5.72874 8.78036 5.08941 8.09272C4.45008 7.40509 4.09091 6.47246 4.09091 5.5C4.09091 4.52754 4.45008 3.59491 5.08941 2.90728C5.72874 2.21964 6.59585 1.83333 7.5 1.83333C8.40415 1.83333 9.27126 2.21964 9.91059 2.90728C10.5499 3.59491 10.9091 4.52754 10.9091 5.5C10.9091 6.47246 10.5499 7.40509 9.91059 8.09272C9.27126 8.78036 8.40415 9.16667 7.5 9.16667ZM7.5 0C4.09091 0 1.17955 2.28067 0 5.5C1.17955 8.71933 4.09091 11 7.5 11C10.9091 11 13.8205 8.71933 15 5.5C13.8205 2.28067 10.9091 0 7.5 0Z" fill="#697586"/>
</svg>
